<svg width="100px" viewBox="0 0 1000 1000" xmlns="http://www.w3.org/2000/svg"><defs/><path fill="#021325" d="M 0 0 L 1000 0 L 1000 1000 L 0 1000 Z"/><path fill="#c9d454" transform="matrix(1.670233130579613 0 0 1.670233130579613 -40.64963936965352 -79.96028984332862)" d="M 234.66552608203 353.168137234 L 234.66552608203 387.398137234 L 263.50552608203 373.548137234 L 263.50552608203 341.628137234 L 234.66552608203 353.168137234 Z"/><path fill="#c9d454" transform="matrix(1.670233130579613 0 0 1.670233130579613 -40.64963936965352 -79.96028984332862)" d="M 234.66552608203 353.168137234 L 234.66552608203 387.398137234 L 205.81552608203 373.548137234 L 205.81552608203 341.628137234 L 234.66552608203 353.168137234 Z"/><g opacity="0.3" transform="matrix(1.670233130579613 0 0 1.670233130579613 -40.64963936965352 -79.96028984332862)"><path fill="#ffffff" d="M 234.66552608203 353.168137234 L 234.66552608203 387.398137234 L 205.81552608203 373.548137234 L 205.81552608203 341.628137234 L 234.66552608203 353.168137234 Z"/></g><path fill="#c9d454" transform="matrix(1.670233130579613 0 0 1.670233130579613 -40.64963936965352 -79.96028984332862)" d="M 234.66552608203 329.138137234 L 205.81552608203 341.628137234 L 234.66552608203 353.168137234 L 263.50552608203 341.628137234 L 234.66552608203 329.138137234 Z"/><path fill="#c9d454" transform="matrix(1.670233130579613 0 0 1.670233130579613 -40.64963936965352 -79.96028984332862)" d="M 142.99552608203 353.168137234 L 142.99552608203 387.398137234 L 171.83552608203 373.548137234 L 171.83552608203 341.628137234 L 142.99552608203 353.168137234 Z"/><g opacity="0.3" transform="matrix(1.670233130579613 0 0 1.670233130579613 -40.64963936965352 -79.96028984332862)"><path fill="#ffffff" d="M 142.99552608203 353.168137234 L 142.99552608203 387.398137234 L 171.83552608203 373.548137234 L 171.83552608203 341.628137234 L 142.99552608203 353.168137234 Z"/></g><path fill="#c9d454" transform="matrix(1.670233130579613 0 0 1.670233130579613 -40.64963936965352 -79.96028984332862)" d="M 142.99552608203 353.168137234 L 142.99552608203 387.398137234 L 114.14552608203 373.548137234 L 114.14552608203 341.628137234 L 142.99552608203 353.168137234 Z"/><path fill="#c9d454" transform="matrix(1.670233130579613 0 0 1.670233130579613 -40.64963936965352 -79.96028984332862)" d="M 142.99552608203 329.138137234 L 114.14552608203 341.628137234 L 142.99552608203 353.168137234 L 171.83552608203 341.628137234 L 142.99552608203 329.138137234 Z"/><path fill="#c9d454" transform="matrix(1.670233130579613 0 0 1.670233130579613 -40.64963936965352 -79.96028984332862)" d="M 188.82552608203 372.178137234 L 188.82552608203 406.408137234 L 217.67552608203 392.558137234 L 217.67552608203 360.638137234 L 188.82552608203 372.178137234 Z"/><path fill="#c9d454" transform="matrix(1.670233130579613 0 0 1.670233130579613 -40.64963936965352 -79.96028984332862)" d="M 188.82552608203 372.178137234 L 188.82552608203 406.408137234 L 159.98552608203 392.558137234 L 159.98552608203 360.638137234 L 188.82552608203 372.178137234 Z"/><path fill="#c9d454" transform="matrix(1.670233130579613 0 0 1.670233130579613 -40.64963936965352 -79.96028984332862)" d="M 188.82552608203 348.148137234 L 159.98552608203 360.638137234 L 188.82552608203 372.178137234 L 217.67552608203 360.638137234 L 188.82552608203 348.148137234 Z"/><path fill="#c9d454" transform="matrix(1.670233130579613 0 0 1.670233130579613 -40.64963936965352 -79.96028984332862)" d="M 188.82552608203 288.058137234 C 176.12297683592 288.058137234 165.82552608203 298.35558798789 165.82552608203 311.058137234 C 165.82552608203 323.76068648011 176.12297683592 334.058137234 188.82552608203 334.058137234 C 201.52807532814 334.058137234 211.82552608203 323.76068648011 211.82552608203 311.058137234 C 211.82552608203 298.35558798789 201.52807532814 288.058137234 188.82552608203 288.058137234 Z M 188.82552608203 318.988137234 C 185.61318639335 318.98813468629 182.71734364064 317.05253200857 181.48897073991 314.08432947298 C 180.26059783919 311.11612693739 180.94174538988 307.70020817539 183.21464341226 305.43017274497 C 185.48754143464 303.16013731456 188.90431589273 302.48329517863 191.8709680279 303.71540774833 C 194.83762016306 304.94752031804 196.7695718499 307.84580009303 196.76552608203 311.058137234 C 196.78421589384 313.17514075356 195.95561915244 315.21172425921 194.46425874033 316.71435439736 C 192.97289832821 318.21698453551 190.94261031186 319.06088945077 188.82552608203 319.058137234 Z"/><path id="text" fill="#ffffff" transform="matrix(0.7774529415299897 0 0 0.7774529415299897 328.7997694742198 43.70980855104947)" d="M 138.44657012033 515.78392919497 L 138.44657012033 533.54392919497 L 169.55057012033 533.54392919497 L 169.55057012033 546.02392919497 L 138.44657012033 546.02392919497 L 138.44657012033 570.50392919497 L 122.89457012033 570.50392919497 L 122.89457012033 503.30392919497 L 173.67857012033 503.30392919497 L 173.67857012033 515.78392919497 L 138.44657012033 515.78392919497 Z M 208.43057012033 537.47992919497 L 235.59857012033 537.47992919497 L 235.59857012033 549.47992919497 L 208.43057012033 549.47992919497 L 208.43057012033 537.47992919497 Z M 320.22257012033 506.27992919497 C 324.60657012033 508.26392919497 327.98257012033 511.07992919497 330.35057012033 514.72792919497 C 332.71857012033 518.37592919497 333.90257012033 522.69592919497 333.90257012033 527.68792919497 C 333.90257012033 532.61592919497 332.71857012033 536.91992919497 330.35057012033 540.59992919497 C 327.98257012033 544.27992919497 324.60657012033 547.09592919497 320.22257012033 549.04792919497 C 315.83857012033 550.99992919497 310.67057012033 551.97592919497 304.71857012033 551.97592919497 L 291.18257012033 551.97592919497 L 291.18257012033 570.50392919497 L 275.63057012033 570.50392919497 L 275.63057012033 503.30392919497 L 304.71857012033 503.30392919497 C 310.67057012033 503.30392919497 315.83857012033 504.29592919497 320.22257012033 506.27992919497 Z M 314.51057012033 536.27992919497 C 316.94257012033 534.26392919497 318.15857012033 531.39992919497 318.15857012033 527.68792919497 C 318.15857012033 523.91192919497 316.94257012033 521.01592919497 314.51057012033 518.99992919497 C 312.07857012033 516.98392919497 308.52657012033 515.97592919497 303.85457012033 515.97592919497 L 291.18257012033 515.97592919497 L 291.18257012033 539.30392919497 L 303.85457012033 539.30392919497 C 308.52657012033 539.30392919497 312.07857012033 538.29592919497 314.51057012033 536.27992919497 Z M 370.09457012033 537.47992919497 L 397.26257012033 537.47992919497 L 397.26257012033 549.47992919497 L 370.09457012033 549.47992919497 L 370.09457012033 537.47992919497 Z M 450.87857012033 567.19192919497 C 445.34257012033 564.21592919497 440.99057012033 560.08792919497 437.82257012033 554.80792919497 C 434.65457012033 549.52792919497 433.07057012033 543.55992919497 433.07057012033 536.90392919497 C 433.07057012033 530.24792919497 434.65457012033 524.27992919497 437.82257012033 518.99992919497 C 440.99057012033 513.71992919497 445.34257012033 509.59192919497 450.87857012033 506.61592919497 C 456.41457012033 503.63992919497 462.63857012033 502.15192919497 469.55057012033 502.15192919497 C 475.37457012033 502.15192919497 480.63857012033 503.17592919497 485.34257012033 505.22392919497 C 490.04657012033 507.27192919497 493.99857012033 510.21592919497 497.19857012033 514.05592919497 L 487.21457012033 523.27192919497 C 482.67057012033 518.02392919497 477.03857012033 515.39992919497 470.31857012033 515.39992919497 C 466.15857012033 515.39992919497 462.44657012033 516.31192919497 459.18257012033 518.13592919497 C 455.91857012033 519.95992919497 453.37457012033 522.50392919497 451.55057012033 525.76792919497 C 449.72657012033 529.03192919497 448.81457012033 532.74392919497 448.81457012033 536.90392919497 C 448.81457012033 541.06392919497 449.72657012033 544.77592919497 451.55057012033 548.03992919497 C 453.37457012033 551.30392919497 455.91857012033 553.84792919497 459.18257012033 555.67192919497 C 462.44657012033 557.49592919497 466.15857012033 558.40792919497 470.31857012033 558.40792919497 C 477.03857012033 558.40792919497 482.67057012033 555.75192919497 487.21457012033 550.43992919497 L 497.19857012033 559.65592919497 C 493.99857012033 563.55992919497 490.03057012033 566.53592919497 485.29457012033 568.58392919497 C 480.55857012033 570.63192919497 475.27857012033 571.65592919497 469.45457012033 571.65592919497 C 462.60657012033 571.65592919497 456.41457012033 570.16792919497 450.87857012033 567.19192919497 Z"/><path id="text" fill="#c9d454" transform="matrix(0.38872647076499484 0 0 0.38872647076499484 331.70799122647446 121.87366569838528)" d="M 238.30773114975 1141.00785838993 L 238.30773114975 1071.18967657175 L 280.17136751338 1071.18967657175 L 280.17136751338 1078.68967657175 L 246.76227660429 1078.68967657175 L 246.76227660429 1102.28058566266 L 277.03500387702 1102.28058566266 L 277.03500387702 1109.78058566266 L 246.76227660429 1109.78058566266 L 246.76227660429 1141.00785838993 L 238.30773114975 1141.00785838993 Z M 316.47136751338 1142.09876748084 C 311.42591296793 1142.09876748084 307.07932205884 1140.97944929902 303.43159478611 1138.74081293538 C 299.78386751338 1136.50217657175 296.97704933156 1133.36581293538 295.01114024065 1129.33172202629 C 293.04523114975 1125.2976311172 292.06227660429 1120.59876748084 292.06227660429 1115.2351311172 C 292.06227660429 1109.87149475357 293.04523114975 1105.13854020811 295.01114024065 1101.03626748084 C 296.97704933156 1096.93399475357 299.72704933156 1093.72944929902 303.26114024065 1091.4226311172 C 306.79523114975 1089.11581293538 310.92591296793 1087.96240384448 315.6531856952 1087.96240384448 C 318.38045842247 1087.96240384448 321.07364024065 1088.41694929902 323.73273114975 1089.32604020811 C 326.39182205884 1090.2351311172 328.81227660429 1091.70672202629 330.99409478611 1093.74081293538 C 333.17591296793 1095.77490384448 334.91454933156 1098.46240384448 336.21000387702 1101.80331293538 C 337.50545842247 1105.14422202629 338.1531856952 1109.25785838993 338.1531856952 1114.14422202629 L 338.1531856952 1117.55331293538 L 297.78954933156 1117.55331293538 L 297.78954933156 1110.59876748084 L 329.97136751338 1110.59876748084 C 329.97136751338 1107.64422202629 329.38614024065 1105.00785838993 328.2156856952 1102.68967657175 C 327.04523114975 1100.37149475357 325.38614024065 1098.54194929902 323.23841296793 1097.20104020811 C 321.0906856952 1095.8601311172 318.56227660429 1095.18967657175 315.6531856952 1095.18967657175 C 312.44864024065 1095.18967657175 309.68159478611 1095.97944929902 307.35204933156 1097.55899475357 C 305.02250387702 1099.13854020811 303.23273114975 1101.18967657175 301.98273114975 1103.71240384448 C 300.73273114975 1106.2351311172 300.10773114975 1108.93967657175 300.10773114975 1111.82604020811 L 300.10773114975 1116.46240384448 C 300.10773114975 1120.41694929902 300.79523114975 1123.76354020811 302.17023114975 1126.50217657175 C 303.54523114975 1129.24081293538 305.46000387702 1131.32035838993 307.91454933156 1132.74081293538 C 310.36909478611 1134.16126748084 313.22136751338 1134.87149475357 316.47136751338 1134.87149475357 C 318.58500387702 1134.87149475357 320.49977660429 1134.57035838993 322.2156856952 1133.96808566266 C 323.93159478611 1133.36581293538 325.41454933156 1132.45672202629 326.66454933156 1131.24081293538 C 327.91454933156 1130.02490384448 328.88045842247 1128.50785838993 329.56227660429 1126.68967657175 L 337.33500387702 1128.87149475357 C 336.51682205884 1131.50785838993 335.14182205884 1133.82035838993 333.21000387702 1135.80899475357 C 331.2781856952 1137.7976311172 328.89182205884 1139.34308566266 326.05091296793 1140.44535838993 C 323.21000387702 1141.5476311172 320.01682205884 1142.09876748084 316.47136751338 1142.09876748084 Z M 355.22591296793 1141.00785838993 L 355.22591296793 1088.64422202629 L 362.99864024065 1088.64422202629 L 362.99864024065 1096.55331293538 L 363.54409478611 1096.55331293538 C 364.49864024065 1093.96240384448 366.22591296793 1091.8601311172 368.72591296793 1090.24649475357 C 371.22591296793 1088.63285838993 374.04409478611 1087.82604020811 377.18045842247 1087.82604020811 C 377.77136751338 1087.82604020811 378.51000387702 1087.83740384448 379.39636751338 1087.8601311172 C 380.28273114975 1087.88285838993 380.9531856952 1087.91694929902 381.40773114975 1087.96240384448 L 381.40773114975 1096.14422202629 C 381.13500387702 1096.07604020811 380.5156856952 1095.96808566266 379.54977660429 1095.82035838993 C 378.58386751338 1095.6726311172 377.56682205884 1095.59876748084 376.49864024065 1095.59876748084 C 373.9531856952 1095.59876748084 371.68614024065 1096.12717657175 369.69750387702 1097.18399475357 C 367.70886751338 1098.24081293538 366.1406856952 1099.69535838993 364.99295842247 1101.5476311172 C 363.84523114975 1103.39990384448 363.27136751338 1105.50785838993 363.27136751338 1107.87149475357 L 363.27136751338 1141.00785838993 L 355.22591296793 1141.00785838993 Z M 395.7531856952 1141.00785838993 L 395.7531856952 1088.64422202629 L 403.52591296793 1088.64422202629 L 403.52591296793 1096.55331293538 L 404.07136751338 1096.55331293538 C 405.02591296793 1093.96240384448 406.7531856952 1091.8601311172 409.2531856952 1090.24649475357 C 411.7531856952 1088.63285838993 414.57136751338 1087.82604020811 417.70773114975 1087.82604020811 C 418.29864024065 1087.82604020811 419.03727660429 1087.83740384448 419.92364024065 1087.8601311172 C 420.81000387702 1087.88285838993 421.48045842247 1087.91694929902 421.93500387702 1087.96240384448 L 421.93500387702 1096.14422202629 C 421.66227660429 1096.07604020811 421.04295842247 1095.96808566266 420.07704933156 1095.82035838993 C 419.11114024065 1095.6726311172 418.09409478611 1095.59876748084 417.02591296793 1095.59876748084 C 414.48045842247 1095.59876748084 412.21341296793 1096.12717657175 410.22477660429 1097.18399475357 C 408.23614024065 1098.24081293538 406.66795842247 1099.69535838993 405.52023114975 1101.5476311172 C 404.37250387702 1103.39990384448 403.79864024065 1105.50785838993 403.79864024065 1107.87149475357 L 403.79864024065 1141.00785838993 L 395.7531856952 1141.00785838993 Z M 456.59864024065 1142.09876748084 C 451.5531856952 1142.09876748084 447.20659478611 1140.97944929902 443.55886751338 1138.74081293538 C 439.91114024065 1136.50217657175 437.10432205884 1133.36581293538 435.13841296793 1129.33172202629 C 433.17250387702 1125.2976311172 432.18954933156 1120.59876748084 432.18954933156 1115.2351311172 C 432.18954933156 1109.87149475357 433.17250387702 1105.13854020811 435.13841296793 1101.03626748084 C 437.10432205884 1096.93399475357 439.85432205884 1093.72944929902 443.38841296793 1091.4226311172 C 446.92250387702 1089.11581293538 451.0531856952 1087.96240384448 455.78045842247 1087.96240384448 C 458.50773114975 1087.96240384448 461.20091296793 1088.41694929902 463.86000387702 1089.32604020811 C 466.51909478611 1090.2351311172 468.93954933156 1091.70672202629 471.12136751338 1093.74081293538 C 473.3031856952 1095.77490384448 475.04182205884 1098.46240384448 476.33727660429 1101.80331293538 C 477.63273114975 1105.14422202629 478.28045842247 1109.25785838993 478.28045842247 1114.14422202629 L 478.28045842247 1117.55331293538 L 437.91682205884 1117.55331293538 L 437.91682205884 1110.59876748084 L 470.09864024065 1110.59876748084 C 470.09864024065 1107.64422202629 469.51341296793 1105.00785838993 468.34295842247 1102.68967657175 C 467.17250387702 1100.37149475357 465.51341296793 1098.54194929902 463.3656856952 1097.20104020811 C 461.21795842247 1095.8601311172 458.68954933156 1095.18967657175 455.78045842247 1095.18967657175 C 452.57591296793 1095.18967657175 449.80886751338 1095.97944929902 447.47932205884 1097.55899475357 C 445.14977660429 1099.13854020811 443.36000387702 1101.18967657175 442.11000387702 1103.71240384448 C 440.86000387702 1106.2351311172 440.23500387702 1108.93967657175 440.23500387702 1111.82604020811 L 440.23500387702 1116.46240384448 C 440.23500387702 1120.41694929902 440.92250387702 1123.76354020811 442.29750387702 1126.50217657175 C 443.67250387702 1129.24081293538 445.58727660429 1131.32035838993 448.04182205884 1132.74081293538 C 450.49636751338 1134.16126748084 453.34864024065 1134.87149475357 456.59864024065 1134.87149475357 C 458.71227660429 1134.87149475357 460.62704933156 1134.57035838993 462.34295842247 1133.96808566266 C 464.05886751338 1133.36581293538 465.54182205884 1132.45672202629 466.79182205884 1131.24081293538 C 468.04182205884 1130.02490384448 469.00773114975 1128.50785838993 469.68954933156 1126.68967657175 L 477.46227660429 1128.87149475357 C 476.64409478611 1131.50785838993 475.26909478611 1133.82035838993 473.33727660429 1135.80899475357 C 471.40545842247 1137.7976311172 469.01909478611 1139.34308566266 466.1781856952 1140.44535838993 C 463.33727660429 1141.5476311172 460.14409478611 1142.09876748084 456.59864024065 1142.09876748084 Z M 496.44409478611 1141.00785838993 L 496.44409478611 1071.18967657175 L 520.03500387702 1071.18967657175 C 525.51227660429 1071.18967657175 529.99523114975 1072.1726311172 533.48386751338 1074.13854020811 C 536.97250387702 1076.10444929902 539.55773114975 1078.75785838993 541.23954933156 1082.09876748084 C 542.92136751338 1085.43967657175 543.76227660429 1089.16694929902 543.76227660429 1093.28058566266 C 543.76227660429 1097.39422202629 542.92704933156 1101.13285838993 541.25659478611 1104.49649475357 C 539.58614024065 1107.8601311172 537.01227660429 1110.53626748084 533.53500387702 1112.52490384448 C 530.05773114975 1114.51354020811 525.6031856952 1115.50785838993 520.17136751338 1115.50785838993 L 503.26227660429 1115.50785838993 L 503.26227660429 1108.00785838993 L 519.89864024065 1108.00785838993 C 523.64864024065 1108.00785838993 526.66000387702 1107.3601311172 528.93273114975 1106.06467657175 C 531.20545842247 1104.76922202629 532.85886751338 1103.01354020811 533.89295842247 1100.7976311172 C 534.92704933156 1098.58172202629 535.44409478611 1096.07604020811 535.44409478611 1093.28058566266 C 535.44409478611 1090.4851311172 534.92704933156 1087.9851311172 533.89295842247 1085.78058566266 C 532.85886751338 1083.57604020811 531.19409478611 1081.84308566266 528.89864024065 1080.58172202629 C 526.6031856952 1079.32035838993 523.55773114975 1078.68967657175 519.76227660429 1078.68967657175 L 504.89864024065 1078.68967657175 L 504.89864024065 1141.00785838993 L 496.44409478611 1141.00785838993 Z M 561.10773114975 1141.00785838993 L 561.10773114975 1088.64422202629 L 568.88045842247 1088.64422202629 L 568.88045842247 1096.55331293538 L 569.42591296793 1096.55331293538 C 570.38045842247 1093.96240384448 572.10773114975 1091.8601311172 574.60773114975 1090.24649475357 C 577.10773114975 1088.63285838993 579.92591296793 1087.82604020811 583.06227660429 1087.82604020811 C 583.6531856952 1087.82604020811 584.39182205884 1087.83740384448 585.2781856952 1087.8601311172 C 586.16454933156 1087.88285838993 586.83500387702 1087.91694929902 587.28954933156 1087.96240384448 L 587.28954933156 1096.14422202629 C 587.01682205884 1096.07604020811 586.39750387702 1095.96808566266 585.43159478611 1095.82035838993 C 584.4656856952 1095.6726311172 583.44864024065 1095.59876748084 582.38045842247 1095.59876748084 C 579.83500387702 1095.59876748084 577.56795842247 1096.12717657175 575.57932205884 1097.18399475357 C 573.5906856952 1098.24081293538 572.02250387702 1099.69535838993 570.87477660429 1101.5476311172 C 569.72704933156 1103.39990384448 569.1531856952 1105.50785838993 569.1531856952 1107.87149475357 L 569.1531856952 1141.00785838993 L 561.10773114975 1141.00785838993 Z M 621.27136751338 1142.09876748084 C 616.54409478611 1142.09876748084 612.40204933156 1140.97376748084 608.84523114975 1138.72376748084 C 605.28841296793 1136.47376748084 602.5156856952 1133.32604020811 600.52704933156 1129.28058566266 C 598.53841296793 1125.2351311172 597.54409478611 1120.50785838993 597.54409478611 1115.09876748084 C 597.54409478611 1109.64422202629 598.53841296793 1104.88285838993 600.52704933156 1100.81467657175 C 602.5156856952 1096.74649475357 605.28841296793 1093.58740384448 608.84523114975 1091.33740384448 C 612.40204933156 1089.08740384448 616.54409478611 1087.96240384448 621.27136751338 1087.96240384448 C 625.99864024065 1087.96240384448 630.1406856952 1089.08740384448 633.69750387702 1091.33740384448 C 637.25432205884 1093.58740384448 640.02704933156 1096.74649475357 642.0156856952 1100.81467657175 C 644.00432205884 1104.88285838993 644.99864024065 1109.64422202629 644.99864024065 1115.09876748084 C 644.99864024065 1120.50785838993 644.00432205884 1125.2351311172 642.0156856952 1129.28058566266 C 640.02704933156 1133.32604020811 637.25432205884 1136.47376748084 633.69750387702 1138.72376748084 C 630.1406856952 1140.97376748084 625.99864024065 1142.09876748084 621.27136751338 1142.09876748084 Z M 621.27136751338 1134.87149475357 C 624.86227660429 1134.87149475357 627.81682205884 1133.95104020811 630.13500387702 1132.1101311172 C 632.4531856952 1130.26922202629 634.16909478611 1127.84876748084 635.28273114975 1124.84876748084 C 636.39636751338 1121.84876748084 636.9531856952 1118.59876748084 636.9531856952 1115.09876748084 C 636.9531856952 1111.59876748084 636.39636751338 1108.33740384448 635.28273114975 1105.31467657175 C 634.16909478611 1102.29194929902 632.4531856952 1099.84876748084 630.13500387702 1097.9851311172 C 627.81682205884 1096.12149475357 624.86227660429 1095.18967657175 621.27136751338 1095.18967657175 C 617.68045842247 1095.18967657175 614.72591296793 1096.12149475357 612.40773114975 1097.9851311172 C 610.08954933156 1099.84876748084 608.37364024065 1102.29194929902 607.26000387702 1105.31467657175 C 606.14636751338 1108.33740384448 605.58954933156 1111.59876748084 605.58954933156 1115.09876748084 C 605.58954933156 1118.59876748084 606.14636751338 1121.84876748084 607.26000387702 1124.84876748084 C 608.37364024065 1127.84876748084 610.08954933156 1130.26922202629 612.40773114975 1132.1101311172 C 614.72591296793 1133.95104020811 617.68045842247 1134.87149475357 621.27136751338 1134.87149475357 Z M 719.34409478611 1093.00785838993 L 710.88954933156 1093.00785838993 C 710.38954933156 1090.57604020811 709.52023114975 1088.43967657175 708.28159478611 1086.59876748084 C 707.04295842247 1084.75785838993 705.54295842247 1083.20672202629 703.78159478611 1081.94535838993 C 702.02023114975 1080.68399475357 700.07136751338 1079.7351311172 697.93500387702 1079.09876748084 C 695.79864024065 1078.46240384448 693.57136751338 1078.14422202629 691.2531856952 1078.14422202629 C 687.02591296793 1078.14422202629 683.20204933156 1079.21240384448 679.78159478611 1081.34876748084 C 676.36114024065 1083.4851311172 673.64523114975 1086.63285838993 671.63386751338 1090.79194929902 C 669.62250387702 1094.95104020811 668.61682205884 1100.05331293538 668.61682205884 1106.09876748084 C 668.61682205884 1112.14422202629 669.62250387702 1117.24649475357 671.63386751338 1121.40558566266 C 673.64523114975 1125.56467657175 676.36114024065 1128.71240384448 679.78159478611 1130.84876748084 C 683.20204933156 1132.9851311172 687.02591296793 1134.05331293538 691.2531856952 1134.05331293538 C 693.57136751338 1134.05331293538 695.79864024065 1133.7351311172 697.93500387702 1133.09876748084 C 700.07136751338 1132.46240384448 702.02023114975 1131.51354020811 703.78159478611 1130.25217657175 C 705.54295842247 1128.99081293538 707.04295842247 1127.43399475357 708.28159478611 1125.58172202629 C 709.52023114975 1123.72944929902 710.38954933156 1121.59876748084 710.88954933156 1119.18967657175 L 719.34409478611 1119.18967657175 C 718.70773114975 1122.75785838993 717.54864024065 1125.95104020811 715.86682205884 1128.76922202629 C 714.18500387702 1131.58740384448 712.09409478611 1133.97944929902 709.59409478611 1135.94535838993 C 707.09409478611 1137.91126748084 704.29295842247 1139.40558566266 701.1906856952 1140.42831293538 C 698.08841296793 1141.45104020811 694.77591296793 1141.96240384448 691.2531856952 1141.96240384448 C 685.29864024065 1141.96240384448 680.0031856952 1140.50785838993 675.36682205884 1137.59876748084 C 670.73045842247 1134.68967657175 667.08273114975 1130.55331293538 664.42364024065 1125.18967657175 C 661.76454933156 1119.82604020811 660.43500387702 1113.46240384448 660.43500387702 1106.09876748084 C 660.43500387702 1098.7351311172 661.76454933156 1092.37149475357 664.42364024065 1087.00785838993 C 667.08273114975 1081.64422202629 670.73045842247 1077.50785838993 675.36682205884 1074.59876748084 C 680.0031856952 1071.68967657175 685.29864024065 1070.2351311172 691.2531856952 1070.2351311172 C 694.77591296793 1070.2351311172 698.08841296793 1070.74649475357 701.1906856952 1071.76922202629 C 704.29295842247 1072.79194929902 707.09409478611 1074.28626748084 709.59409478611 1076.25217657175 C 712.09409478611 1078.21808566266 714.18500387702 1080.60444929902 715.86682205884 1083.41126748084 C 717.54864024065 1086.21808566266 718.70773114975 1089.41694929902 719.34409478611 1093.00785838993 Z M 757.96227660429 1142.09876748084 C 753.23500387702 1142.09876748084 749.09295842247 1140.97376748084 745.53614024065 1138.72376748084 C 741.97932205884 1136.47376748084 739.20659478611 1133.32604020811 737.21795842247 1129.28058566266 C 735.22932205884 1125.2351311172 734.23500387702 1120.50785838993 734.23500387702 1115.09876748084 C 734.23500387702 1109.64422202629 735.22932205884 1104.88285838993 737.21795842247 1100.81467657175 C 739.20659478611 1096.74649475357 741.97932205884 1093.58740384448 745.53614024065 1091.33740384448 C 749.09295842247 1089.08740384448 753.23500387702 1087.96240384448 757.96227660429 1087.96240384448 C 762.68954933156 1087.96240384448 766.83159478611 1089.08740384448 770.38841296793 1091.33740384448 C 773.94523114975 1093.58740384448 776.71795842247 1096.74649475357 778.70659478611 1100.81467657175 C 780.69523114975 1104.88285838993 781.68954933156 1109.64422202629 781.68954933156 1115.09876748084 C 781.68954933156 1120.50785838993 780.69523114975 1125.2351311172 778.70659478611 1129.28058566266 C 776.71795842247 1133.32604020811 773.94523114975 1136.47376748084 770.38841296793 1138.72376748084 C 766.83159478611 1140.97376748084 762.68954933156 1142.09876748084 757.96227660429 1142.09876748084 Z M 757.96227660429 1134.87149475357 C 761.5531856952 1134.87149475357 764.50773114975 1133.95104020811 766.82591296793 1132.1101311172 C 769.14409478611 1130.26922202629 770.86000387702 1127.84876748084 771.97364024065 1124.84876748084 C 773.08727660429 1121.84876748084 773.64409478611 1118.59876748084 773.64409478611 1115.09876748084 C 773.64409478611 1111.59876748084 773.08727660429 1108.33740384448 771.97364024065 1105.31467657175 C 770.86000387702 1102.29194929902 769.14409478611 1099.84876748084 766.82591296793 1097.9851311172 C 764.50773114975 1096.12149475357 761.5531856952 1095.18967657175 757.96227660429 1095.18967657175 C 754.37136751338 1095.18967657175 751.41682205884 1096.12149475357 749.09864024065 1097.9851311172 C 746.78045842247 1099.84876748084 745.06454933156 1102.29194929902 743.95091296793 1105.31467657175 C 742.83727660429 1108.33740384448 742.28045842247 1111.59876748084 742.28045842247 1115.09876748084 C 742.28045842247 1118.59876748084 742.83727660429 1121.84876748084 743.95091296793 1124.84876748084 C 745.06454933156 1127.84876748084 746.78045842247 1130.26922202629 749.09864024065 1132.1101311172 C 751.41682205884 1133.95104020811 754.37136751338 1134.87149475357 757.96227660429 1134.87149475357 Z M 806.80773114975 1109.50785838993 L 806.80773114975 1141.00785838993 L 798.76227660429 1141.00785838993 L 798.76227660429 1088.64422202629 L 806.53500387702 1088.64422202629 L 806.53500387702 1096.82604020811 L 807.21682205884 1096.82604020811 C 808.44409478611 1094.16694929902 810.30773114975 1092.02490384448 812.80773114975 1090.39990384448 C 815.30773114975 1088.77490384448 818.53500387702 1087.96240384448 822.48954933156 1087.96240384448 C 826.03500387702 1087.96240384448 829.13727660429 1088.68399475357 831.79636751338 1090.12717657175 C 834.45545842247 1091.57035838993 836.52364024065 1093.75217657175 838.00091296793 1096.6726311172 C 839.4781856952 1099.59308566266 840.21682205884 1103.28058566266 840.21682205884 1107.7351311172 L 840.21682205884 1141.00785838993 L 832.17136751338 1141.00785838993 L 832.17136751338 1108.28058566266 C 832.17136751338 1104.16694929902 831.1031856952 1100.95672202629 828.96682205884 1098.64990384448 C 826.83045842247 1096.34308566266 823.89864024065 1095.18967657175 820.17136751338 1095.18967657175 C 817.6031856952 1095.18967657175 815.31341296793 1095.74649475357 813.30204933156 1096.8601311172 C 811.2906856952 1097.97376748084 809.70545842247 1099.59876748084 808.54636751338 1101.7351311172 C 807.38727660429 1103.87149475357 806.80773114975 1106.46240384448 806.80773114975 1109.50785838993 Z M 879.51682205884 1142.09876748084 C 875.1531856952 1142.09876748084 871.30091296793 1140.99081293538 867.96000387702 1138.77490384448 C 864.61909478611 1136.55899475357 862.00545842247 1133.4226311172 860.11909478611 1129.36581293538 C 858.23273114975 1125.30899475357 857.28954933156 1120.50785838993 857.28954933156 1114.96240384448 C 857.28954933156 1109.46240384448 858.23273114975 1104.68967657175 860.11909478611 1100.64422202629 C 862.00545842247 1096.59876748084 864.63045842247 1093.47376748084 867.99409478611 1091.26922202629 C 871.35773114975 1089.06467657175 875.24409478611 1087.96240384448 879.6531856952 1087.96240384448 C 883.06227660429 1087.96240384448 885.76114024065 1088.52490384448 887.74977660429 1089.64990384448 C 889.73841296793 1090.77490384448 891.26114024065 1092.0476311172 892.31795842247 1093.46808566266 C 893.37477660429 1094.88854020811 894.19864024065 1096.05331293538 894.78954933156 1096.96240384448 L 895.47136751338 1096.96240384448 L 895.47136751338 1071.18967657175 L 903.51682205884 1071.18967657175 L 903.51682205884 1141.00785838993 L 895.74409478611 1141.00785838993 L 895.74409478611 1132.96240384448 L 894.78954933156 1132.96240384448 C 894.19864024065 1133.91694929902 893.35773114975 1135.11581293538 892.26682205884 1136.55899475357 C 891.17591296793 1138.00217657175 889.61909478611 1139.28626748084 887.59636751338 1140.41126748084 C 885.57364024065 1141.53626748084 882.88045842247 1142.09876748084 879.51682205884 1142.09876748084 Z M 880.60773114975 1134.87149475357 C 883.83500387702 1134.87149475357 886.56227660429 1134.02490384448 888.78954933156 1132.33172202629 C 891.01682205884 1130.63854020811 892.71000387702 1128.28626748084 893.86909478611 1125.27490384448 C 895.0281856952 1122.26354020811 895.60773114975 1118.78058566266 895.60773114975 1114.82604020811 C 895.60773114975 1110.91694929902 895.03954933156 1107.49081293538 893.9031856952 1104.5476311172 C 892.76682205884 1101.60444929902 891.08500387702 1099.30899475357 888.85773114975 1097.66126748084 C 886.63045842247 1096.01354020811 883.88045842247 1095.18967657175 880.60773114975 1095.18967657175 C 877.19864024065 1095.18967657175 874.36341296793 1096.05899475357 872.10204933156 1097.7976311172 C 869.8406856952 1099.53626748084 868.14750387702 1101.88854020811 867.02250387702 1104.85444929902 C 865.89750387702 1107.82035838993 865.33500387702 1111.14422202629 865.33500387702 1114.82604020811 C 865.33500387702 1118.55331293538 865.90886751338 1121.93399475357 867.05659478611 1124.96808566266 C 868.20432205884 1128.00217657175 869.90886751338 1130.41126748084 872.17023114975 1132.19535838993 C 874.43159478611 1133.97944929902 877.24409478611 1134.87149475357 880.60773114975 1134.87149475357 Z M 946.08954933156 1142.09876748084 C 941.04409478611 1142.09876748084 936.69750387702 1140.97944929902 933.04977660429 1138.74081293538 C 929.40204933156 1136.50217657175 926.59523114975 1133.36581293538 924.62932205884 1129.33172202629 C 922.66341296793 1125.2976311172 921.68045842247 1120.59876748084 921.68045842247 1115.2351311172 C 921.68045842247 1109.87149475357 922.66341296793 1105.13854020811 924.62932205884 1101.03626748084 C 926.59523114975 1096.93399475357 929.34523114975 1093.72944929902 932.87932205884 1091.4226311172 C 936.41341296793 1089.11581293538 940.54409478611 1087.96240384448 945.27136751338 1087.96240384448 C 947.99864024065 1087.96240384448 950.69182205884 1088.41694929902 953.35091296793 1089.32604020811 C 956.01000387702 1090.2351311172 958.43045842247 1091.70672202629 960.61227660429 1093.74081293538 C 962.79409478611 1095.77490384448 964.53273114975 1098.46240384448 965.8281856952 1101.80331293538 C 967.12364024065 1105.14422202629 967.77136751338 1109.25785838993 967.77136751338 1114.14422202629 L 967.77136751338 1117.55331293538 L 927.40773114975 1117.55331293538 L 927.40773114975 1110.59876748084 L 959.58954933156 1110.59876748084 C 959.58954933156 1107.64422202629 959.00432205884 1105.00785838993 957.83386751338 1102.68967657175 C 956.66341296793 1100.37149475357 955.00432205884 1098.54194929902 952.85659478611 1097.20104020811 C 950.70886751338 1095.8601311172 948.18045842247 1095.18967657175 945.27136751338 1095.18967657175 C 942.06682205884 1095.18967657175 939.29977660429 1095.97944929902 936.97023114975 1097.55899475357 C 934.6406856952 1099.13854020811 932.85091296793 1101.18967657175 931.60091296793 1103.71240384448 C 930.35091296793 1106.2351311172 929.72591296793 1108.93967657175 929.72591296793 1111.82604020811 L 929.72591296793 1116.46240384448 C 929.72591296793 1120.41694929902 930.41341296793 1123.76354020811 931.78841296793 1126.50217657175 C 933.16341296793 1129.24081293538 935.0781856952 1131.32035838993 937.53273114975 1132.74081293538 C 939.98727660429 1134.16126748084 942.83954933156 1134.87149475357 946.08954933156 1134.87149475357 C 948.2031856952 1134.87149475357 950.11795842247 1134.57035838993 951.83386751338 1133.96808566266 C 953.54977660429 1133.36581293538 955.03273114975 1132.45672202629 956.28273114975 1131.24081293538 C 957.53273114975 1130.02490384448 958.49864024065 1128.50785838993 959.18045842247 1126.68967657175 L 966.9531856952 1128.87149475357 C 966.13500387702 1131.50785838993 964.76000387702 1133.82035838993 962.8281856952 1135.80899475357 C 960.89636751338 1137.7976311172 958.51000387702 1139.34308566266 955.66909478611 1140.44535838993 C 952.8281856952 1141.5476311172 949.63500387702 1142.09876748084 946.08954933156 1142.09876748084 Z M 1055.91682205884 1088.64422202629 C 1055.50773114975 1085.18967657175 1053.84864024065 1082.50785838993 1050.93954933156 1080.59876748084 C 1048.03045842247 1078.68967657175 1044.46227660429 1077.7351311172 1040.23500387702 1077.7351311172 C 1037.14409478611 1077.7351311172 1034.44523114975 1078.2351311172 1032.13841296793 1079.2351311172 C 1029.83159478611 1080.2351311172 1028.03614024065 1081.6101311172 1026.75204933156 1083.3601311172 C 1025.46795842247 1085.1101311172 1024.82591296793 1087.09876748084 1024.82591296793 1089.32604020811 C 1024.82591296793 1091.18967657175 1025.27477660429 1092.78626748084 1026.17250387702 1094.11581293538 C 1027.07023114975 1095.44535838993 1028.22364024065 1096.5476311172 1029.63273114975 1097.4226311172 C 1031.04182205884 1098.2976311172 1032.51909478611 1099.01354020811 1034.06454933156 1099.57035838993 C 1035.61000387702 1100.12717657175 1037.03045842247 1100.57604020811 1038.32591296793 1100.91694929902 L 1045.41682205884 1102.82604020811 C 1047.23500387702 1103.30331293538 1049.26341296793 1103.96240384448 1051.50204933156 1104.80331293538 C 1053.7406856952 1105.64422202629 1055.88841296793 1106.78626748084 1057.94523114975 1108.22944929902 C 1060.00204933156 1109.6726311172 1061.70091296793 1111.51922202629 1063.04182205884 1113.76922202629 C 1064.38273114975 1116.01922202629 1065.0531856952 1118.78058566266 1065.0531856952 1122.05331293538 C 1065.0531856952 1125.82604020811 1064.07023114975 1129.2351311172 1062.10432205884 1132.28058566266 C 1060.13841296793 1135.32604020811 1057.27477660429 1137.74649475357 1053.51341296793 1139.54194929902 C 1049.75204933156 1141.33740384448 1045.18954933156 1142.2351311172 1039.82591296793 1142.2351311172 C 1034.82591296793 1142.2351311172 1030.50204933156 1141.42831293538 1026.85432205884 1139.81467657175 C 1023.20659478611 1138.20104020811 1020.34295842247 1135.95104020811 1018.26341296793 1133.06467657175 C 1016.18386751338 1130.17831293538 1015.00773114975 1126.82604020811 1014.73500387702 1123.00785838993 L 1023.46227660429 1123.00785838993 C 1023.68954933156 1125.64422202629 1024.58159478611 1127.82035838993 1026.13841296793 1129.53626748084 C 1027.69523114975 1131.25217657175 1029.67250387702 1132.52490384448 1032.07023114975 1133.35444929902 C 1034.46795842247 1134.18399475357 1037.0531856952 1134.59876748084 1039.82591296793 1134.59876748084 C 1043.0531856952 1134.59876748084 1045.95091296793 1134.07035838993 1048.51909478611 1133.01354020811 C 1051.08727660429 1131.95672202629 1053.12136751338 1130.47944929902 1054.62136751338 1128.58172202629 C 1056.12136751338 1126.68399475357 1056.87136751338 1124.46240384448 1056.87136751338 1121.91694929902 C 1056.87136751338 1119.59876748084 1056.22364024065 1117.71240384448 1054.9281856952 1116.25785838993 C 1053.63273114975 1114.80331293538 1051.9281856952 1113.62149475357 1049.81454933156 1112.71240384448 C 1047.70091296793 1111.80331293538 1045.41682205884 1111.00785838993 1042.96227660429 1110.32604020811 L 1034.37136751338 1107.87149475357 C 1028.91682205884 1106.30331293538 1024.59864024065 1104.06467657175 1021.41682205884 1101.15558566266 C 1018.23500387702 1098.24649475357 1016.64409478611 1094.43967657175 1016.64409478611 1089.7351311172 C 1016.64409478611 1085.82604020811 1017.70659478611 1082.41126748084 1019.83159478611 1079.49081293538 C 1021.95659478611 1076.57035838993 1024.82023114975 1074.2976311172 1028.42250387702 1072.6726311172 C 1032.02477660429 1071.0476311172 1036.0531856952 1070.2351311172 1040.50773114975 1070.2351311172 C 1045.00773114975 1070.2351311172 1049.00773114975 1071.03626748084 1052.50773114975 1072.63854020811 C 1056.00773114975 1074.24081293538 1058.78614024065 1076.42831293538 1060.84295842247 1079.20104020811 C 1062.89977660429 1081.97376748084 1063.98500387702 1085.12149475357 1064.09864024065 1088.64422202629 L 1055.91682205884 1088.64422202629 Z M 1088.53500387702 1141.55331293538 C 1086.8531856952 1141.55331293538 1085.41000387702 1140.95104020811 1084.20545842247 1139.74649475357 C 1083.00091296793 1138.54194929902 1082.39864024065 1137.09876748084 1082.39864024065 1135.41694929902 C 1082.39864024065 1133.7351311172 1083.00091296793 1132.29194929902 1084.20545842247 1131.08740384448 C 1085.41000387702 1129.88285838993 1086.8531856952 1129.28058566266 1088.53500387702 1129.28058566266 C 1090.21682205884 1129.28058566266 1091.66000387702 1129.88285838993 1092.86454933156 1131.08740384448 C 1094.06909478611 1132.29194929902 1094.67136751338 1133.7351311172 1094.67136751338 1135.41694929902 C 1094.67136751338 1136.53058566266 1094.39295842247 1137.55331293538 1093.83614024065 1138.4851311172 C 1093.27932205884 1139.41694929902 1092.5406856952 1140.16126748084 1091.62023114975 1140.71808566266 C 1090.69977660429 1141.27490384448 1089.67136751338 1141.55331293538 1088.53500387702 1141.55331293538 Z M 1117.88045842247 1141.00785838993 L 1109.01682205884 1141.00785838993 L 1134.6531856952 1071.18967657175 L 1143.38045842247 1071.18967657175 L 1169.01682205884 1141.00785838993 L 1160.1531856952 1141.00785838993 L 1139.28954933156 1082.2351311172 L 1138.74409478611 1082.2351311172 L 1117.88045842247 1141.00785838993 Z M 1121.1531856952 1113.7351311172 L 1156.88045842247 1113.7351311172 L 1156.88045842247 1121.2351311172 L 1121.1531856952 1121.2351311172 L 1121.1531856952 1113.7351311172 Z M 1189.49864024065 1141.55331293538 C 1187.81682205884 1141.55331293538 1186.37364024065 1140.95104020811 1185.16909478611 1139.74649475357 C 1183.96454933156 1138.54194929902 1183.36227660429 1137.09876748084 1183.36227660429 1135.41694929902 C 1183.36227660429 1133.7351311172 1183.96454933156 1132.29194929902 1185.16909478611 1131.08740384448 C 1186.37364024065 1129.88285838993 1187.81682205884 1129.28058566266 1189.49864024065 1129.28058566266 C 1191.18045842247 1129.28058566266 1192.62364024065 1129.88285838993 1193.8281856952 1131.08740384448 C 1195.03273114975 1132.29194929902 1195.63500387702 1133.7351311172 1195.63500387702 1135.41694929902 C 1195.63500387702 1136.53058566266 1195.35659478611 1137.55331293538 1194.79977660429 1138.4851311172 C 1194.24295842247 1139.41694929902 1193.50432205884 1140.16126748084 1192.58386751338 1140.71808566266 C 1191.66341296793 1141.27490384448 1190.63500387702 1141.55331293538 1189.49864024065 1141.55331293538 Z M 1303.96227660429 1093.00785838993 L 1295.50773114975 1093.00785838993 C 1295.00773114975 1090.57604020811 1294.13841296793 1088.43967657175 1292.89977660429 1086.59876748084 C 1291.66114024065 1084.75785838993 1290.16114024065 1083.20672202629 1288.39977660429 1081.94535838993 C 1286.63841296793 1080.68399475357 1284.68954933156 1079.7351311172 1282.5531856952 1079.09876748084 C 1280.41682205884 1078.46240384448 1278.18954933156 1078.14422202629 1275.87136751338 1078.14422202629 C 1271.64409478611 1078.14422202629 1267.82023114975 1079.21240384448 1264.39977660429 1081.34876748084 C 1260.97932205884 1083.4851311172 1258.26341296793 1086.63285838993 1256.25204933156 1090.79194929902 C 1254.2406856952 1094.95104020811 1253.23500387702 1100.05331293538 1253.23500387702 1106.09876748084 C 1253.23500387702 1112.14422202629 1254.2406856952 1117.24649475357 1256.25204933156 1121.40558566266 C 1258.26341296793 1125.56467657175 1260.97932205884 1128.71240384448 1264.39977660429 1130.84876748084 C 1267.82023114975 1132.9851311172 1271.64409478611 1134.05331293538 1275.87136751338 1134.05331293538 C 1278.18954933156 1134.05331293538 1280.41682205884 1133.7351311172 1282.5531856952 1133.09876748084 C 1284.68954933156 1132.46240384448 1286.63841296793 1131.51354020811 1288.39977660429 1130.25217657175 C 1290.16114024065 1128.99081293538 1291.66114024065 1127.43399475357 1292.89977660429 1125.58172202629 C 1294.13841296793 1123.72944929902 1295.00773114975 1121.59876748084 1295.50773114975 1119.18967657175 L 1303.96227660429 1119.18967657175 C 1303.32591296793 1122.75785838993 1302.16682205884 1125.95104020811 1300.48500387702 1128.76922202629 C 1298.8031856952 1131.58740384448 1296.71227660429 1133.97944929902 1294.21227660429 1135.94535838993 C 1291.71227660429 1137.91126748084 1288.91114024065 1139.40558566266 1285.80886751338 1140.42831293538 C 1282.70659478611 1141.45104020811 1279.39409478611 1141.96240384448 1275.87136751338 1141.96240384448 C 1269.91682205884 1141.96240384448 1264.62136751338 1140.50785838993 1259.98500387702 1137.59876748084 C 1255.34864024065 1134.68967657175 1251.70091296793 1130.55331293538 1249.04182205884 1125.18967657175 C 1246.38273114975 1119.82604020811 1245.0531856952 1113.46240384448 1245.0531856952 1106.09876748084 C 1245.0531856952 1098.7351311172 1246.38273114975 1092.37149475357 1249.04182205884 1087.00785838993 C 1251.70091296793 1081.64422202629 1255.34864024065 1077.50785838993 1259.98500387702 1074.59876748084 C 1264.62136751338 1071.68967657175 1269.91682205884 1070.2351311172 1275.87136751338 1070.2351311172 C 1279.39409478611 1070.2351311172 1282.70659478611 1070.74649475357 1285.80886751338 1071.76922202629 C 1288.91114024065 1072.79194929902 1291.71227660429 1074.28626748084 1294.21227660429 1076.25217657175 C 1296.71227660429 1078.21808566266 1298.8031856952 1080.60444929902 1300.48500387702 1083.41126748084 C 1302.16682205884 1086.21808566266 1303.32591296793 1089.41694929902 1303.96227660429 1093.00785838993 Z M 1327.17136751338 1141.55331293538 C 1325.48954933156 1141.55331293538 1324.04636751338 1140.95104020811 1322.84182205884 1139.74649475357 C 1321.63727660429 1138.54194929902 1321.03500387702 1137.09876748084 1321.03500387702 1135.41694929902 C 1321.03500387702 1133.7351311172 1321.63727660429 1132.29194929902 1322.84182205884 1131.08740384448 C 1324.04636751338 1129.88285838993 1325.48954933156 1129.28058566266 1327.17136751338 1129.28058566266 C 1328.8531856952 1129.28058566266 1330.29636751338 1129.88285838993 1331.50091296793 1131.08740384448 C 1332.70545842247 1132.29194929902 1333.30773114975 1133.7351311172 1333.30773114975 1135.41694929902 C 1333.30773114975 1136.53058566266 1333.02932205884 1137.55331293538 1332.47250387702 1138.4851311172 C 1331.9156856952 1139.41694929902 1331.17704933156 1140.16126748084 1330.25659478611 1140.71808566266 C 1329.33614024065 1141.27490384448 1328.30773114975 1141.55331293538 1327.17136751338 1141.55331293538 Z"/></svg>